<?xml version="1.0" standalone="no"?>
<!DOCTYPE svg PUBLIC "-//W3C//DTD SVG 20010904//EN"
 "http://www.w3.org/TR/2001/REC-SVG-20010904/DTD/svg10.dtd">
<svg version="1.0" xmlns="http://www.w3.org/2000/svg"
 width="800.000000pt" height="800.000000pt" viewBox="0 0 800.000000 800.000000"
 preserveAspectRatio="xMidYMid meet">
<metadata>
Created by potrace 1.14, written by Peter Selinger 2001-2017
</metadata>
<g transform="translate(0.000000,800.000000) scale(0.100000,-0.100000)"
fill="#000000" stroke="none">
<path d="M3986 6916 c-60 -11 -73 -18 -102 -52 -19 -21 -41 -51 -49 -66 -9
-16 -18 -28 -20 -28 -3 0 -34 11 -70 25 -53 20 -71 22 -93 14 -15 -6 -35 -13
-44 -15 -44 -10 -55 -13 -91 -26 -21 -7 -69 -38 -106 -68 -53 -42 -78 -71
-107 -125 -57 -105 -118 -197 -148 -223 -15 -12 -24 -27 -21 -32 3 -6 33 -10
65 -10 l58 0 -10 -37 c-19 -72 -112 -248 -155 -293 -51 -54 -39 -61 47 -27 55
23 61 23 69 8 9 -18 9 -310 0 -326 -4 -5 -7 -26 -8 -45 -1 -19 -3 -46 -3 -60
-4 -63 51 -243 93 -304 37 -55 61 -74 104 -82 32 -6 39 -13 60 -58 60 -131 95
-217 95 -231 0 -9 4 -24 9 -33 11 -20 22 -111 25 -199 2 -84 -48 -232 -85
-249 -13 -7 -67 -15 -120 -18 l-96 -6 -49 -48 c-54 -53 -109 -95 -127 -98 -7
-1 -78 -32 -160 -68 -81 -36 -154 -66 -162 -66 -8 0 -15 -4 -15 -10 0 -5 -5
-10 -11 -10 -13 0 -172 -56 -200 -70 -9 -5 -35 -14 -58 -20 -22 -6 -41 -15
-41 -20 0 -6 -5 -10 -10 -10 -10 0 -34 -14 -145 -86 -77 -50 -180 -153 -208
-210 -14 -28 -35 -98 -47 -155 -25 -127 -26 -133 -35 -189 -11 -76 -14 -93
-20 -145 -7 -56 -6 -50 -35 -230 -30 -191 -40 -245 -47 -280 -2 -11 -5 -29 -7
-40 -3 -19 -18 -105 -21 -115 -4 -17 -25 -120 -30 -145 -3 -16 -12 -66 -20
-110 -8 -44 -19 -102 -25 -130 -6 -27 -11 -57 -12 -65 0 -8 -4 -35 -8 -60 -5
-25 -11 -63 -14 -85 -4 -23 -9 -52 -12 -65 -2 -14 -7 -43 -9 -65 -3 -22 -14
-92 -25 -155 -11 -63 -22 -126 -24 -140 -2 -14 -6 -38 -9 -55 -4 -16 -9 -46
-12 -65 -4 -29 -12 -67 -21 -102 -1 -5 -2 -9 -3 -10 -2 -2 -4 -14 -7 -28 -12
-70 -38 -184 -59 -255 -35 -123 -65 -237 -70 -265 -3 -14 -7 -38 -10 -55 -3
-16 -7 -43 -10 -60 -3 -16 -8 -46 -10 -65 -3 -19 -8 -46 -11 -60 -9 -41 -21
-128 -30 -220 -2 -25 -6 -58 -8 -75 -3 -16 -8 -56 -11 -87 l-7 -58 509 0 508
0 3 35 c1 20 27 111 57 204 l54 169 -24 73 -25 73 28 27 c27 26 42 78 109 369
2 8 4 47 4 86 1 68 3 74 41 120 22 27 44 50 48 52 5 2 7 -18 5 -45 -2 -26 -6
-93 -10 -148 -6 -104 -13 -189 -20 -240 -2 -16 -7 -64 -10 -105 -4 -41 -13
-102 -20 -135 -7 -33 -16 -78 -19 -100 -6 -39 -16 -95 -22 -125 -1 -8 -22 -81
-47 -162 l-44 -148 1988 0 c1721 0 1989 2 1989 14 0 28 -30 153 -65 271 -23
77 -38 148 -40 200 -3 44 -7 114 -9 155 -3 48 -16 107 -36 165 -17 50 -32 95
-34 100 -1 6 -4 15 -7 20 -5 8 -49 135 -54 155 -1 3 -5 12 -8 20 -3 8 -16 42
-27 75 -12 33 -24 67 -28 75 -3 8 -6 20 -7 25 0 6 -4 15 -8 22 -9 14 -65 207
-71 243 -3 14 -10 59 -16 100 -7 41 -25 129 -40 195 -16 66 -31 138 -34 160
-3 22 -10 72 -15 110 -6 39 -13 90 -16 115 -11 90 -14 107 -34 210 -10 58 -22
125 -26 150 -4 24 -8 47 -10 50 -2 3 -6 34 -10 70 -3 35 -8 67 -10 70 -2 4 -7
29 -10 56 -4 27 -8 56 -10 64 -4 14 -13 74 -21 140 -1 14 -5 35 -8 47 -2 12
-7 48 -11 80 -6 61 -44 218 -70 292 -20 57 -51 107 -96 153 -20 21 -54 57 -75
80 -21 24 -59 56 -84 73 -25 16 -58 40 -73 52 -15 12 -58 36 -95 54 -174 81
-226 108 -342 177 -87 52 -146 96 -193 143 -37 38 -71 68 -75 67 -10 -3 -85
23 -97 33 -5 5 -25 9 -45 9 -58 0 -69 14 -94 131 -21 97 -26 167 -16 246 6 51
14 70 47 110 71 86 109 172 134 301 7 39 17 62 25 62 21 0 50 37 64 83 6 23
16 47 20 52 4 6 11 39 14 74 4 36 9 68 12 72 2 5 6 25 9 46 2 21 7 64 11 97 6
54 5 60 -19 82 l-26 23 29 53 c26 47 29 60 25 118 -3 36 -2 59 1 53 3 -7 13
-13 21 -13 11 0 14 6 9 23 -7 21 -9 33 -21 89 -10 44 10 40 35 -8 14 -24 29
-43 35 -41 14 5 10 337 -5 418 -5 26 -4 39 4 40 37 3 53 7 71 17 18 10 18 11
2 12 -30 0 -95 38 -102 59 -3 11 -53 65 -110 120 -58 55 -105 103 -105 106 0
3 9 5 20 5 33 0 22 13 -53 61 -107 69 -147 87 -202 90 -28 2 -65 12 -83 22
-19 11 -50 21 -70 22 -213 12 -253 12 -316 1z"/>
</g>
</svg>
